<svg xmlns="http://www.w3.org/2000/svg" viewBox="0 0 126.97 107.13"><defs><style>.cls-1{fill:#fff;}</style></defs><title>ecommerce-icon</title><g id="Layer_2" data-name="Layer 2"><g id="Layer_1-2" data-name="Layer 1"><path class="cls-1" d="M0,6.45a9.07,9.07,0,0,1,3.37-5A8.85,8.85,0,0,1,8.53,0Q32.4,0,56.27,0h62.36c4.34,0,7.49,2.52,8.22,6.57A10.34,10.34,0,0,1,127,8.43q0,37.2,0,74.39c0,5.09-3.28,8.4-8.36,8.41H81.51c.51,4.12,1,8.11,1.52,12.18H89c1.37,0,2.2.69,2.24,1.79s-.84,1.92-2.25,1.92H38a1.94,1.94,0,0,1-2.2-1.85c0-1.1.83-1.85,2.17-1.86,1.94,0,3.88,0,6,0,.51-4,1-8,1.53-12.18H9.8c-5.8,0-7.57-1.15-9.8-6.42ZM63.53,3.73H8.72c-3.49,0-5,1.49-5,4.95V82.46c0,3.55,1.49,5.05,5,5.05H118.25c3.48,0,5-1.52,5-5V8.77c0-3.56-1.48-5-5-5Zm15.72,99.62-1.18-9.67c-.3-2.45-.3-2.45-2.83-2.45-.41,0-.82,0-1.24,0-1,0-2.23-.31-2.88.17s-.67,1.76-1,2.7A6.94,6.94,0,0,1,56.79,94c-.26-.91-.48-1.82-.71-2.69H49.21c-.51,4-1,8-1.49,12Zm-12.33-12H60.05c.27,2.71,1.49,4.15,3.44,4.15S66.67,94,66.92,91.3Z"/><path class="cls-1" d="M48.63,59.66h33.6a8.12,8.12,0,0,1,1.48.08A1.68,1.68,0,0,1,85.08,62a2.83,2.83,0,0,0,0,2.1,5.52,5.52,0,0,1-2.1,6,5.46,5.46,0,0,1-6.28.53,5.53,5.53,0,0,1-3-5.64c0-.48.13-1,.21-1.52H57.15c.07.6.17,1.15.2,1.71a5.8,5.8,0,0,1-9.68,4.65,5.56,5.56,0,0,1-1.59-6.21,1.53,1.53,0,0,0-.26-1.74,3.53,3.53,0,0,1-.44-4.06c.68-1.41,1.41-2.8,2.08-4.22a1.54,1.54,0,0,0,.21-1c-1.07-3.46-2.23-6.89-3.26-10.36-1.4-4.71-2.67-9.45-4.08-14.15a4.2,4.2,0,0,0-1.4-1.87c-1.31-1-2.74-1.84-4.1-2.78a1.85,1.85,0,1,1,2-3.12c1.77,1.14,3.51,2.32,5.26,3.5.3.21.69.45.79.76.49,1.44,1.67,1.35,2.82,1.41l40.85,1.81c2.31.11,2.94.85,2.48,3.14q-1.45,7.35-3,14.68a7.52,7.52,0,0,1-6.52,6.25c-6,.81-12,1.47-18.07,2.19a57.78,57.78,0,0,1-8.24.88c-2.09,0-2.9.83-3.5,2.48C49.46,58.1,49.08,58.74,48.63,59.66Zm3.45-29.8H44.74c.71,2.49,1.4,5,2.13,7.39a.84.84,0,0,0,.57.49c1.93,0,3.87,0,5.94,0Zm3.88.53c.37,2.27.72,4.58,1.14,6.88,0,.2.45.48.69.48,1.89,0,3.78,0,5.74,0V30.39ZM48.08,41.57c.82,2.85,1.57,5.58,2.39,8.3a1.94,1.94,0,0,0,2.07,1.45c1,0,2-.22,3-.35L54,41.57Zm19.34-3.8c2,0,4,0,6,0a.94.94,0,0,0,.69-.62c.22-2,.37-4,.56-6.2H67.42Zm-9.64,3.81,1.5,9L63.54,50V41.58Zm15.91-.08H70c-2.66,0-2.66,0-2.66,2.65v5.44c1.81-.2,3.4-.35,5-.58a1.06,1.06,0,0,0,.74-.63C73.31,46.14,73.48,43.89,73.69,41.5Zm4.68-10.33-.56,6.6c1.93,0,3.65,0,5.37,0a1.1,1.1,0,0,0,.78-.69c.41-1.8.74-3.62,1.12-5.56Zm-.94,10.41-.59,6.78c4.73.1,5.76-2.16,6-6.78ZM81.5,65.51a2.09,2.09,0,0,0-2.13-2.09,2,2,0,0,0-2.06,2,2.09,2.09,0,0,0,2,2.18A2.13,2.13,0,0,0,81.5,65.51ZM51.58,67.6a2.1,2.1,0,0,0,2.06-2.16,2,2,0,0,0-2-2,2.08,2.08,0,0,0-2.14,2.07A2.13,2.13,0,0,0,51.58,67.6Z"/><path class="cls-1" d="M11.72,11.68V79.57c.69,0,1.34,0,2,0a1.81,1.81,0,0,1,1.91,1.7,1.76,1.76,0,0,1-1.66,2,31.29,31.29,0,0,1-4.33,0A1.76,1.76,0,0,1,8,81.39c0-.33,0-.66,0-1V10.85c0-2.4.5-2.89,2.9-2.89h93.35c2,0,2.92.62,2.9,1.89s-.91,1.82-2.94,1.82H11.72Z"/><path class="cls-1" d="M115.26,79.56V11.67c-.7,0-1.39,0-2.07,0a1.81,1.81,0,0,1-1.84-1.78A1.79,1.79,0,0,1,113.08,8a37,37,0,0,1,4.21,0A1.77,1.77,0,0,1,119,9.79a10.28,10.28,0,0,1,0,1.11V80.32c0,2.48-.48,3-3,3H22.83a6.49,6.49,0,0,1-1.59-.14A1.67,1.67,0,0,1,19.9,81.3a1.71,1.71,0,0,1,1.64-1.71,14.76,14.76,0,0,1,1.49,0h92.23Z"/></g></g></svg>