<svg width="16" height="12" viewBox="0 0 16 12" fill="none" xmlns="http://www.w3.org/2000/svg">
<path d="M14.1818 0H1.09091C0.801582 0 0.524105 0.126428 0.31952 0.351472C0.114935 0.576515 0 0.88174 0 1.2V10.8C0 11.1183 0.114935 11.4235 0.31952 11.6485C0.524105 11.8736 0.801582 12 1.09091 12H14.1818C14.4711 12 14.7486 11.8736 14.9532 11.6485C15.1578 11.4235 15.2727 11.1183 15.2727 10.8V1.2C15.2727 0.88174 15.1578 0.576515 14.9532 0.351472C14.7486 0.126428 14.4711 0 14.1818 0ZM12.9818 1.2L7.63636 5.268L2.29091 1.2H12.9818ZM1.09091 10.8V1.746L7.32545 6.492C7.41676 6.56168 7.52524 6.59901 7.63636 6.59901C7.74749 6.59901 7.85597 6.56168 7.94727 6.492L14.1818 1.746V10.8H1.09091Z" fill="white"/>
</svg>
