<?xml version="1.0" encoding="utf-8"?>
<!-- Generator: Adobe Illustrator 23.0.5, SVG Export Plug-In . SVG Version: 6.00 Build 0)  -->
<svg version="1.1" id="Layer_1" xmlns="http://www.w3.org/2000/svg" xmlns:xlink="http://www.w3.org/1999/xlink" x="0px" y="0px"
	 viewBox="0 0 68 47" style="enable-background:new 0 0 68 47;" xml:space="preserve">
<style type="text/css">
	.st0{fill:none;}
	.st1{fill:#23B8BF;}
	.st2{opacity:0.5;fill:#23B8BF;}
	.st3{fill:#FFFFFF;}
</style>
<rect x="-1.5" y="5.7" class="st0" width="71.1" height="35.8"/>
<path class="st1" d="M64.6,37.9V13.7c-4.8-1.5-9.4-3-14-4.5c-6.3-2-12.7-4.1-19-6.2c-1-0.3-1.9-1.1-2.8-1.5
	c-0.7-0.3-1.6-0.7-2.3-0.5C19.2,2.9,11.8,4.9,4.3,6.8v14.6h0.8V7.3c7.3-1.9,14.5-3.8,22-5.8v38c0.8,0.1,1.3,0.1,1.9,0.1
	c12.9,0,25.7,0,38.6,0V38c0,0,0,0,0,0C66.6,37.9,65.6,37.9,64.6,37.9z"/>
<g>
	<path class="st1" d="M5.5,41.3H5c0,0-0.1-0.1-0.1-0.1v-17c0-0.1,0-0.1-0.1-0.1H3.5c0,0-0.1,0.1-0.1,0.1v0.4c0,0.1,0,0.1,0.1,0.1
		h0.8c0,0,0.1,0.1,0.1,0.1v17.4c0,0.1,0,0.1,0.1,0.1h1V41.3z"/>
	<path class="st1" d="M67.1,40.9H5v2.9h62c0.2,0,0.4-0.1,0.4-0.1v-2.6C67.5,41,67.3,40.9,67.1,40.9z"/>
	<path class="st2" d="M4.3,24.5c0-0.2,0-0.4,0-0.6c0,0,0,0,0,0H3.5c0,0-0.1,0.1-0.1,0.1v0.4c0,0.1,0,0.1,0.1,0.1L4.3,24.5
		C4.3,24.6,4.3,24.6,4.3,24.5z"/>
	<g>
		<path class="st1" d="M3.7,25.1H0.9c-0.2,0-0.3-0.2-0.3-0.4v-0.8c0-0.2,0.1-0.4,0.3-0.4h2.8c0.2,0,0.3,0.2,0.3,0.4v0.8
			C3.9,24.9,3.8,25.1,3.7,25.1z"/>
	</g>
	<path class="st1" d="M10.4,43.7c0,1.3-0.8,2.4-1.8,2.4c-1,0-1.8-1.1-1.8-2.4s0.8-2.4,1.8-2.4C9.6,41.4,10.4,42.4,10.4,43.7z"/>
	<path class="st1" d="M9.5,43.7c0,0.6-0.4,1.2-0.9,1.2c-0.5,0-0.9-0.5-0.9-1.2c0-0.6,0.4-1.2,0.9-1.2C9.1,42.6,9.5,43.1,9.5,43.7z"
		/>
	<path class="st2" d="M9.2,41.2c-1,0-1.8,1.1-1.8,2.4c0,0.1,0,0.1,0,0.2h3.5c0-0.1,0-0.1,0-0.2C10.9,42.3,10.1,41.2,9.2,41.2z"/>
	<ellipse class="st1" cx="63.6" cy="43.7" rx="1.8" ry="2.4"/>
	<path class="st1" d="M64.4,43.7c0,0.6-0.4,1.2-0.9,1.2c-0.5,0-0.9-0.5-0.9-1.2c0-0.6,0.4-1.2,0.9-1.2
		C64.1,42.6,64.4,43.1,64.4,43.7z"/>
</g>
<g>
	<path class="st1" d="M16.3,7.6c1.8,0.4,2.8,1.7,2.8,3.8v4.1c0,0.1-0.1,0.2-0.2,0.2h-2.3c-0.1,0-0.2-0.1-0.2-0.2v-3.1
		c0-0.8-0.3-1.2-1-1.2h-1.2c-0.7,0-1,0.5-1,1.4v18.1c0,1,0.3,1.4,0.9,1.4h1.6c0.5-0.1,0.8-0.5,0.8-1.1v-8h-1.7
		c-0.1,0-0.2-0.1-0.2-0.2v-3.2c0-0.1,0.1-0.2,0.2-0.2h4.2c0.1,0,0.2,0.1,0.2,0.2V32c0,2-0.8,3.3-2.5,3.8H13c-1,0-1.8-1-2.4-3.1
		c-0.1-0.3-0.1-0.6-0.1-0.9V11.8c0-2.1,0.8-3.5,2.3-4.2H16.3z M12.7,36.3h0.2c0.1,0,0.5,0.7,1.4,2v0.1h-0.1c-0.2,0-0.7-0.7-1.5-2
		V36.3z M13.7,36.4h0.2c0.1,0,0.6,0.7,1.5,2.2v0.1h-0.2c-0.3,0-0.9-0.7-1.8-2.2L13.7,36.4z M13.6,12.9L13.6,12.9
		c0.2,0,0.7,0.7,1.6,2.2v0.6h-0.1c-0.1,0-0.6-0.7-1.6-2.2V12.9z M13.6,14.2L13.6,14.2c0.2,0,0.7,0.7,1.6,2.2V17h-0.1
		c-0.1,0-0.6-0.7-1.6-2.2V14.2z M13.6,15.7L13.6,15.7c0.2,0,0.7,0.7,1.6,2.2v0.4h-0.1c-0.1,0-0.6-0.7-1.6-2.2V15.7z M13.6,17
		L13.6,17c0.2,0,0.6,0.6,1.3,1.8v0.1h-0.4c-0.1,0-0.4-0.4-0.9-1.3V17z M13.6,18.3L13.6,18.3c0.2,0,0.4,0.3,0.7,0.9v0.5h-0.1
		c-0.1,0-0.3-0.3-0.6-0.9V18.3z M13.6,19.7L13.6,19.7c0.2,0,0.4,0.3,0.7,0.9v0.4h-0.1c-0.1,0-0.3-0.3-0.6-0.9V19.7z M13.6,21.1
		L13.6,21.1c0.2,0,0.4,0.3,0.7,0.9v0.3c0,0.2-0.1,0.2-0.2,0.2l-0.5-0.9V21.1z M13.6,22.4L13.6,22.4c0.3,0.2,0.5,0.6,0.8,1.2
		c0.2,0,0.4,0.4,0.9,1.1v0.4h-0.1c-0.1,0-0.6-0.7-1.6-2.2V22.4z M13.6,23.8L13.6,23.8c0.2,0,0.7,0.7,1.6,2.2v0.4h-0.1
		c-0.1,0-0.6-0.7-1.6-2.2V23.8z M13.6,25.1L13.6,25.1c0.2,0,0.7,0.7,1.6,2.2v0.6h-0.1c-0.1,0-0.6-0.7-1.6-2.2V25.1z M13.6,26.4
		L13.6,26.4c0.9,1.1,1.4,1.8,1.6,2.3v0.5h-0.1c-0.1,0-0.6-0.7-1.6-2.2V26.4z M13.6,27.9L13.6,27.9c0.2,0,0.7,0.7,1.6,2.2v0.4h-0.1
		c-0.1,0-0.6-0.7-1.6-2.2V27.9z M13.6,29.2L13.6,29.2c0.2,0,0.7,0.7,1.6,2.2v0.1c0,0.1-0.1,0.2-0.2,0.2H15c-0.1,0-0.5-0.7-1.4-2
		V29.2z M13.6,30.6L13.6,30.6c0.2,0,0.4,0.3,0.8,1v0.1H14c-0.1,0-0.2-0.2-0.5-0.7V30.6z M13.8,11.9L13.8,11.9c0.1,0,0.7,0.8,1.7,2.3
		v0.1c0,0.1-0.1,0.2-0.2,0.2c-0.1,0-0.6-0.8-1.7-2.4C13.7,12,13.7,11.9,13.8,11.9z M14.4,11.8h0.4c0.1,0,0.5,0.6,1.3,1.9v0.2
		c0,0.1-0.1,0.2-0.2,0.2c-0.1,0-0.6-0.7-1.5-2.2V11.8z M14.5,36.4h0.3c0.1,0,0.6,0.7,1.5,2.2v0.1H16c-0.1,0-0.6-0.7-1.6-2.2V36.4z
		 M15,23.6c0.1,0,0.2,0.1,0.2,0.2H15V23.6z M15.3,11.8h0.4c0.3,0.2,0.4,0.5,0.4,0.9c0,0.1-0.1,0.2-0.2,0.2l-0.6-1V11.8z M15.4,36.4
		h0.4c0.1,0,0.6,0.7,1.6,2.2v0.1H17c-0.1,0-0.6-0.7-1.5-2.2V36.4z M16.5,36.4h0.2c0.1,0,0.6,0.7,1.5,2.2v0.1H18
		c-0.2-0.1-0.7-0.8-1.6-2.2L16.5,36.4z M16.9,16.3L16.9,16.3c0.1,0,0.6,0.7,1.6,2.1v0.1C18.4,18.5,17.9,17.8,16.9,16.3z M17.4,36
		L17.4,36c0.1,0,0.7,0.8,1.8,2.4v0.1h-0.3c-0.1,0-0.6-0.8-1.6-2.3C17.2,36.1,17.3,36,17.4,36z M17.5,16.2h0.4c0.1,0,0.6,0.8,1.6,2.3
		l-0.2,0.1h-0.2c-0.1,0-0.6-0.8-1.6-2.3V16.2z M18,35.6h0.2c0.1,0,0.6,0.8,1.6,2.3V38c0,0.1-0.1,0.2-0.2,0.2h-0.1
		c-0.1,0-0.6-0.8-1.7-2.4C17.8,35.7,17.9,35.6,18,35.6z M18.6,16.2h0.2c0.1,0,0.6,0.8,1.6,2.3l-0.2,0.1c-0.3,0-0.9-0.8-1.8-2.3
		L18.6,16.2z M18.6,34.9c0.1,0,0.6,0.8,1.7,2.4c0,0.1-0.1,0.2-0.2,0.2h-0.1c-0.1,0-0.6-0.8-1.6-2.3v-0.1
		C18.5,35,18.5,34.9,18.6,34.9z M19.1,34.1c1.1,1.6,1.7,2.4,1.7,2.4c0,0.1-0.1,0.2-0.2,0.3c-0.1,0-0.6-0.8-1.7-2.4
		C18.8,34.4,18.9,34.3,19.1,34.1z M19.2,33.3h0.2c0.1,0,0.6,0.8,1.6,2.3v0.2c0,0.1-0.1,0.2-0.2,0.2c-0.1,0-0.6-0.8-1.7-2.4
		C19.2,33.5,19.2,33.4,19.2,33.3z M19.4,10.5c0.8,1,1.2,1.7,1.3,2v0.2c-0.1,0-0.5-0.6-1.3-1.9V10.5z M19.4,32.2h0.2
		c0.1,0,0.6,0.7,1.6,2.2v0.4H21c-0.1,0-0.6-0.8-1.6-2.3V32.2z M19.4,11.8L19.4,11.8c0.1,0,0.7,0.7,1.6,2.2v0.4H21
		c-0.1,0-0.6-0.7-1.6-2.2V11.8z M19.4,13.1L19.4,13.1c0.1,0,0.7,0.7,1.6,2.2v0.6H21c-1-1.3-1.6-2.2-1.6-2.5V13.1z M19.4,14.4
		L19.4,14.4c0.1,0,0.7,0.7,1.6,2.2v0.6H21c-0.1,0-0.6-0.7-1.6-2.2V14.4z M19.4,15.9L19.4,15.9c0.1,0,0.7,0.7,1.6,2.2v0.4H21
		c-0.1,0-0.6-0.7-1.6-2.2V15.9z M19.4,20.1L19.4,20.1c0.1,0,0.7,0.7,1.6,2.2v0.3H21c-0.1,0-0.6-0.7-1.6-2.2V20.1z M19.4,21.3
		L19.4,21.3c0.1,0,0.7,0.7,1.6,2.2V24H21c-0.1,0-0.6-0.7-1.6-2.2V21.3z M19.4,22.6L19.4,22.6c0.1,0,0.7,0.7,1.6,2.2v0.5H21
		c-0.1,0-0.6-0.7-1.6-2.2V22.6z M19.4,24L19.4,24c0.1,0,0.7,0.7,1.6,2.2v0.4H21c-0.1,0-0.6-0.7-1.6-2.2V24z M19.4,25.3L19.4,25.3
		c0.1,0,0.7,0.7,1.6,2.2v0.5H21c-0.1,0-0.6-0.7-1.6-2.2V25.3z M19.4,26.7L19.4,26.7c0.1,0,0.7,0.7,1.6,2.2v0.6H21
		c-0.1,0-0.6-0.7-1.6-2.2V26.7z M19.4,28.1L19.4,28.1c0.1,0,0.7,0.7,1.6,2.2v0.4H21c-0.1,0-0.6-0.7-1.6-2.2V28.1z M19.4,29.4
		L19.4,29.4c0.1,0,0.7,0.7,1.6,2.2v0.5H21c-0.1,0-0.6-0.7-1.6-2.2V29.4z M19.4,30.8L19.4,30.8c0.1,0,0.7,0.7,1.6,2.2v0.4H21
		c-0.1,0-0.6-0.7-1.6-2.2V30.8z"/>
</g>
<g>
	<g>
		<path class="st3" d="M29.7,15.3l1.6,0c0.1,0,0.1,0.1,0.1,0.1l-0.1,15.7c0,0.5,0.2,0.7,0.6,0.8l1,0c0.4,0,0.6-0.4,0.6-1.2l0.1-15.3
			c0-0.1,0-0.1,0.1-0.1l1.6,0c0.1,0,0.1,0.1,0.1,0.1l-0.1,16c0,1.5-0.5,2.4-1.6,2.9l-2.4,0c-1,0-1.6-0.8-1.8-2.4l0.1-16.6
			C29.6,15.3,29.6,15.3,29.7,15.3z M30.8,34.7L30.8,34.7c0.1,0,0.4,0.4,0.8,1.1l-0.1,0C31.5,35.8,31.3,35.5,30.8,34.7L30.8,34.7z
			 M31.3,34.8l0.3,0c0,0,0.4,0.5,1,1.5l0,0.1l-0.3,0C32.3,36.3,32,35.8,31.3,34.8L31.3,34.8z M31.5,31L31.5,31
			c0.1,0,0.2,0.2,0.5,0.6c0,0-0.1,0-0.1,0.1C31.6,31.6,31.5,31.4,31.5,31L31.5,31z M31.5,30.1L31.5,30.1c0.1,0,0.4,0.5,1,1.4l0,0.1
			l-0.2,0c0,0-0.3-0.4-0.8-1.2L31.5,30.1z M31.6,29.1l1,1.6l0,0.2c0,0.1,0,0.1-0.1,0.1l-1-1.6l0-0.2C31.5,29.1,31.5,29.1,31.6,29.1z
			 M31.5,28.2L31.5,28.2c0.1,0,0.5,0.5,1.1,1.6l0,0.3l-0.1,0c0,0-0.4-0.5-1.1-1.6L31.5,28.2z M31.5,27.3L31.5,27.3
			c0.1,0,0.5,0.5,1.1,1.6l0,0.3l-0.1,0c0,0-0.4-0.5-1.1-1.6L31.5,27.3z M31.6,26.3l1,1.6l0,0.2c0,0.1,0,0.1-0.1,0.1l-1-1.6l0-0.2
			C31.5,26.4,31.5,26.3,31.6,26.3z M31.5,25.4L31.5,25.4c0.1,0,0.5,0.5,1.1,1.6l0,0.3l-0.1,0c0,0-0.4-0.5-1.1-1.6L31.5,25.4z
			 M31.5,24.5L31.5,24.5c0.3,0.3,0.7,0.8,1.1,1.6l0,0.3l-0.1,0c0,0-0.4-0.5-1.1-1.6L31.5,24.5z M31.5,23.6L31.5,23.6
			c0.1,0,0.5,0.5,1.1,1.6l0,0.2c0,0.1,0,0.1-0.1,0.1l-1-1.6L31.5,23.6z M31.5,22.7L31.5,22.7c0.1,0,0.5,0.5,1.1,1.6l0,0.3l-0.1,0
			c0,0-0.4-0.5-1.1-1.6L31.5,22.7z M31.6,21.7l1,1.6l0,0.4l-0.1,0c0,0-0.4-0.5-1.1-1.6l0-0.2C31.5,21.8,31.6,21.7,31.6,21.7z
			 M31.5,20.8L31.5,20.8c0.1,0,0.5,0.5,1.1,1.6l0,0.2c0,0.1,0,0.1-0.1,0.1l-1-1.6L31.5,20.8z M31.5,19.9L31.5,19.9
			c0.1,0,0.5,0.5,1.1,1.6l0,0.3l-0.1,0c0,0-0.4-0.5-1.1-1.6L31.5,19.9z M31.6,19l1,1.6l0,0.4l-0.1,0c0,0-0.4-0.5-1.1-1.6l0-0.2
			C31.6,19,31.6,19,31.6,19z M31.5,18.1L31.5,18.1c0.1,0,0.5,0.5,1.1,1.6l0,0.2c0,0.1,0,0.1-0.1,0.1l-1-1.6L31.5,18.1z M31.5,17.2
			L31.5,17.2c0.1,0,0.5,0.5,1.1,1.6l0,0.3l-0.1,0c0,0-0.4-0.5-1.1-1.6L31.5,17.2z M31.7,16.2l1,1.6l0,0.4l-0.1,0
			c0,0-0.4-0.5-1.1-1.6l0-0.2C31.6,16.2,31.6,16.2,31.7,16.2z M31.6,15.7L31.6,15.7c0.1,0,0.2,0.1,0.2,0.2l0,0.1
			C31.7,16,31.7,15.9,31.6,15.7z M32,34.8l0.3,0c0,0,0.4,0.5,1,1.5l0,0.1l-0.3,0C33,36.4,32.6,35.8,32,34.8L32,34.8z M32.6,34.8
			l0.2,0c0,0,0.4,0.5,1,1.5l0,0.1l-0.2,0C33.6,36.4,33.3,35.9,32.6,34.8L32.6,34.8z M33.3,34.8l0.3,0c0,0,0.4,0.5,1,1.5l0,0.1
			l-0.3,0C34.3,36.4,33.9,35.9,33.3,34.8L33.3,34.8z M34.1,34.6l1.1,1.7l0,0.1l-0.3,0.1l-1.1-1.7C33.9,34.6,34,34.6,34.1,34.6z
			 M34.3,34.4l0.2,0c0,0,0.4,0.5,1.1,1.6l0,0.1l-0.2,0c0,0-0.4-0.5-1.1-1.6L34.3,34.4z M34.8,33.9L34.8,33.9c0.1,0,0.5,0.6,1.2,1.7
			c0,0.1-0.1,0.1-0.2,0.2c0,0-0.4-0.5-1.1-1.6l0-0.1C34.7,34,34.7,33.9,34.8,33.9z M35.1,33.4c0,0,0.4,0.6,1.1,1.7l0,0.1
			c0,0.1,0,0.1-0.1,0.1c0,0-0.4-0.6-1.1-1.7l0-0.1C35,33.4,35.1,33.4,35.1,33.4z M35.3,32.8l0.1,0c0.3,0.3,0.6,0.9,1.1,1.7l0,0.1
			c0,0.1,0,0.1-0.1,0.1c0,0-0.4-0.5-1.1-1.6L35.3,32.8z M35.4,32L35.4,32c0.1,0,0.5,0.5,1.1,1.6l0,0.2c0,0.1,0,0.1-0.1,0.1l-1.1-1.6
			C35.4,32.3,35.4,32.2,35.4,32z M35.4,31.2L35.4,31.2c0.1,0,0.5,0.5,1.1,1.6l0,0.3l-0.1,0c0,0-0.4-0.5-1.1-1.6L35.4,31.2z
			 M35.4,30.3L35.4,30.3c0.1,0,0.5,0.5,1.1,1.6l0,0.3l-0.1,0c0,0-0.4-0.5-1.1-1.6L35.4,30.3z M35.4,29.3L35.4,29.3
			c0.1,0,0.5,0.5,1.1,1.6l0,0.2c0,0.1,0,0.1-0.1,0.1l-1-1.6L35.4,29.3z M35.5,28.4L35.5,28.4c0.1,0,0.5,0.5,1.1,1.6l0,0.3l-0.1,0
			c0,0-0.4-0.5-1.1-1.6L35.5,28.4z M35.6,27.4l1,1.6l0,0.4l-0.1,0c0,0-0.4-0.5-1.1-1.6l0-0.2C35.5,27.5,35.5,27.4,35.6,27.4z
			 M35.5,26.5L35.5,26.5c0.1,0,0.5,0.5,1.1,1.6l0,0.2c0,0.1,0,0.1-0.1,0.1l-1-1.6L35.5,26.5z M35.5,25.6L35.5,25.6
			c0.1,0,0.5,0.5,1.1,1.6l0,0.3l-0.1,0c0,0-0.4-0.5-1.1-1.6L35.5,25.6z M35.6,24.7l1,1.6l0,0.4l-0.1,0c0,0-0.4-0.5-1.1-1.6l0-0.2
			C35.5,24.7,35.5,24.7,35.6,24.7z M35.5,23.8L35.5,23.8c0.1,0,0.5,0.5,1.1,1.6l0,0.2c0,0.1,0,0.1-0.1,0.1l-1-1.6L35.5,23.8z
			 M35.5,22.9L35.5,22.9c0.1,0,0.5,0.5,1.1,1.6l0,0.3l-0.1,0c0,0-0.4-0.5-1.1-1.6L35.5,22.9z M35.6,21.9l1,1.6l0,0.4l-0.1,0
			c0,0-0.4-0.5-1.1-1.6l0-0.2C35.5,22,35.5,21.9,35.6,21.9z M35.5,21L35.5,21c0.1,0,0.5,0.5,1.1,1.6l0,0.2c0,0.1,0,0.1-0.1,0.1
			l-1-1.6L35.5,21z M35.5,20.1L35.5,20.1c0.1,0,0.5,0.5,1.1,1.6l0,0.3l-0.1,0c0,0-0.4-0.5-1.1-1.6L35.5,20.1z M35.6,19.1l1,1.6
			l0,0.4l-0.1,0c0,0-0.4-0.5-1.1-1.6l0-0.2C35.5,19.2,35.6,19.1,35.6,19.1z M35.6,18.2l1,1.6l0,0.2c0,0.1,0,0.1-0.1,0.1
			c0-0.1-0.3-0.5-0.9-1.3l-0.2-0.2l0-0.2C35.5,18.3,35.6,18.2,35.6,18.2z M35.5,17.4L35.5,17.4c0.1,0,0.5,0.5,1.1,1.6l0,0.3l-0.1,0
			c0,0-0.4-0.5-1.1-1.6L35.5,17.4z M35.6,16.4l1,1.6l0,0.2c0,0.1,0,0.1-0.1,0.1l-1-1.6l0-0.2C35.5,16.4,35.6,16.4,35.6,16.4z
			 M35.6,15.8c0,0,0.4,0.5,1,1.5l0,0.1C36.6,17.4,36.2,16.9,35.6,15.8L35.6,15.8z"/>
		<path class="st3" d="M39.3,17.3l3.4,0c1,0,1.5,0.9,1.7,2.6l-0.1,12.1c0,1.4-0.5,2.2-1.4,2.6l-3.7,0c-0.1,0-0.1,0-0.1-0.1l0.1-17.1
			C39.3,17.4,39.3,17.3,39.3,17.3z M39.4,35L39.4,35c0.1,0,0.4,0.5,1,1.4l0,0.1l0,0C40.3,36.4,40,36,39.4,35L39.4,35z M39.9,35
			l0.2,0c0,0,0.4,0.5,0.9,1.4l0,0.1l-0.2,0C40.8,36.4,40.4,36,39.9,35L39.9,35z M40.4,35l0.2,0c0,0,0.4,0.5,0.9,1.4l0,0.1l-0.2,0
			C41.3,36.4,41,36,40.4,35L40.4,35z M40.9,19.6l-0.1,12.9l1.5,0c0.2,0,0.4-0.2,0.5-0.5l0.1-11.7c0-0.4-0.2-0.6-0.6-0.7L40.9,19.6z
			 M41,31.4L41,31.4c0.1,0,0.3,0.3,0.6,0.8l0,0.1l-0.2,0c0,0-0.2-0.2-0.4-0.5L41,31.4z M41.1,30.5l0.9,1.4l0,0.1
			c0,0.1,0,0.1-0.1,0.1c0,0-0.3-0.5-0.9-1.4l0-0.2C41,30.5,41,30.5,41.1,30.5z M41.1,29.7l0.9,1.4l0,0.3l0,0c-0.7-0.8-1-1.3-1-1.6
			C41,29.7,41,29.7,41.1,29.7z M41,28.9L41,28.9c0.1,0,0.4,0.5,1,1.4l0,0.3l0,0c0,0-0.4-0.5-1-1.4L41,28.9z M41.1,28l0.9,1.4l0,0.3
			l0,0c0,0-0.4-0.5-1-1.4l0-0.2C41,28,41,28,41.1,28z M41.1,27.2l0.9,1.4l0,0.3l0,0c0,0-0.4-0.5-1-1.4l0-0.1
			C41,27.2,41,27.2,41.1,27.2z M41,35l0.2,0c0,0,0.4,0.5,0.9,1.4l0,0.1l-0.2,0C41.9,36.4,41.6,36,41,35L41,35z M41,26.3L41,26.3
			c0.1,0,0.4,0.5,1,1.4l0,0.3l0,0c0,0-0.4-0.5-1-1.4L41,26.3z M41.1,25.5l0.9,1.4l0,0.3l0,0c0,0-0.4-0.5-1-1.4l0-0.2
			C41,25.5,41,25.5,41.1,25.5z M41.1,24.7l0.9,1.4l0,0.3l0,0c0,0-0.4-0.5-1-1.4l0-0.1C41,24.7,41.1,24.7,41.1,24.7z M41.1,23.8
			c0,0.1,0.3,0.5,0.9,1.3l0,0.1l0,0.3l0,0c0,0-0.4-0.5-1-1.4l0-0.2C41,23.8,41.1,23.8,41.1,23.8z M41.1,23l0.9,1.4l0,0.3l0,0
			c0,0-0.4-0.5-1-1.4l0-0.2C41,23,41.1,23,41.1,23z M41,22.1L41,22.1c0.1,0,0.4,0.5,1,1.4l0,0.3l0,0c0,0-0.4-0.5-1-1.4L41,22.1z
			 M41.1,21.3l0.9,1.4l0,0.3l0,0c0,0-0.4-0.5-1-1.4l0-0.2C41,21.3,41.1,21.3,41.1,21.3z M41.1,20.4l0.9,1.4l0,0.2
			c0,0.1,0,0.1-0.1,0.1L41,20.8l0-0.2C41,20.5,41.1,20.4,41.1,20.4z M41.1,19.9l0.2,0c0,0,0.4,0.5,0.9,1.4l0,0.1l-0.2,0
			C42,21.3,41.7,20.9,41.1,19.9L41.1,19.9z M41.6,35l0.2,0c0,0,0.4,0.5,0.9,1.4l0,0.1l-0.2,0C42.5,36.5,42.2,36,41.6,35L41.6,35z
			 M41.7,19.9l0.2,0c0,0,0.3,0.3,0.7,1l0,0.3l0,0C42.5,21.3,42.2,20.8,41.7,19.9L41.7,19.9z M42.2,35l0.2,0c0,0,0.4,0.5,0.9,1.4
			l0,0.1l-0.2,0C43.1,36.5,42.8,36,42.2,35L42.2,35z M42.2,19.9l0.2,0c0,0,0.1,0.1,0.2,0.3l0,0.3l0,0C42.5,20.5,42.4,20.3,42.2,19.9
			L42.2,19.9z M43,35l0.9,1.4l0,0.1l-0.2,0c0,0-0.4-0.5-0.9-1.4l0-0.1L43,35z M43.3,34.8l0.1,0c0,0,0.4,0.5,1,1.4l0,0.1l-0.1,0
			c0,0-0.4-0.5-1-1.4L43.3,34.8z M43.8,34.5L43.8,34.5c0.1,0,0.4,0.5,1.1,1.5c0,0.1,0,0.1-0.1,0.1l-0.1,0c0,0-0.4-0.5-1-1.4l0-0.1
			C43.7,34.5,43.7,34.5,43.8,34.5z M44.1,34.1c0,0,0.4,0.5,1,1.5l0,0.1c0,0.1,0,0.1-0.1,0.1c-0.1,0-0.4-0.5-1.1-1.5
			C44,34.2,44,34.2,44.1,34.1z M44.4,33.6l1,1.5l0,0.1c0,0.1,0,0.1-0.1,0.1c0,0-0.4-0.5-1-1.5C44.2,33.8,44.3,33.7,44.4,33.6z
			 M44.6,33l1,1.5l0,0.1c0,0.1,0,0.1-0.1,0.2l-1-1.5C44.5,33.1,44.5,33,44.6,33z M44.6,32.3L44.6,32.3c0.1,0,0.4,0.5,1,1.4l0,0.2
			c0,0.1,0,0.1-0.1,0.1l-0.9-1.4L44.6,32.3z M44.6,31.5L44.6,31.5c0.1,0,0.4,0.5,1,1.4l0,0.3l0,0c0,0-0.4-0.5-1-1.4L44.6,31.5z
			 M44.7,30.7l0.9,1.4l0,0.2c0,0.1,0,0.1-0.1,0.1L44.6,31l0-0.2C44.6,30.7,44.6,30.7,44.7,30.7z M44.6,29.8L44.6,29.8
			c0.1,0,0.4,0.5,1,1.4l0,0.3l0,0c-0.4-0.5-0.7-1-1-1.4L44.6,29.8z M44.7,29c0.6,0.9,0.9,1.4,0.9,1.6l0,0.1l0,0c0,0-0.4-0.5-1-1.4
			l0-0.2C44.6,29,44.6,29,44.7,29z M44.6,28.1L44.6,28.1c0.1,0,0.4,0.5,1,1.4l0,0.2c0,0.1,0,0.1-0.1,0.1l-0.9-1.4L44.6,28.1z
			 M44.6,27.3L44.6,27.3c0.1,0,0.4,0.5,1,1.4l0,0.3l0,0c0,0-0.4-0.5-1-1.4L44.6,27.3z M44.6,19.1L44.6,19.1c0.5,0.6,0.8,1,0.8,1.1
			l0,0.1C45.3,20.3,45.1,19.9,44.6,19.1L44.6,19.1z M44.6,26.5L44.6,26.5c0.1,0,0.5,0.5,1,1.4l0,0.1c0,0.1,0,0.1-0.1,0.1l-0.9-1.4
			L44.6,26.5z M44.6,25.6L44.6,25.6c0.1,0,0.4,0.5,1,1.4l0,0.2c0,0.1,0,0.1-0.1,0.1L44.6,26L44.6,25.6z M44.6,24.8L44.6,24.8
			c0.1,0,0.4,0.5,1,1.4l0,0.3l0,0c0,0-0.4-0.5-1-1.4L44.6,24.8z M44.7,23.9c0.6,0.9,0.9,1.4,0.9,1.6c0,0.1,0,0.1-0.1,0.1l-0.9-1.4
			l0-0.2C44.6,24,44.7,23.9,44.7,23.9z M44.6,23.1L44.6,23.1c0.1,0,0.4,0.5,1,1.4l0,0.2c0,0.1,0,0.1-0.1,0.1l-0.9-1.4L44.6,23.1z
			 M44.6,22.3L44.6,22.3c0.1,0,0.4,0.5,1,1.4l0,0.3l0,0c0,0-0.4-0.5-1-1.4L44.6,22.3z M44.7,21.4l0.9,1.4l0,0.2c0,0.1,0,0.1-0.1,0.1
			l-0.9-1.4l0-0.2C44.6,21.5,44.7,21.4,44.7,21.4z M44.6,20.6L44.6,20.6c0.1,0,0.4,0.5,1,1.4l0,0.2c0,0.1,0,0.1-0.1,0.1L44.6,21
			L44.6,20.6z M44.6,19.8L44.6,19.8c0.7,0.8,1,1.4,1,1.7l0,0c0,0-0.4-0.5-1-1.4L44.6,19.8z"/>
		<path class="st3" d="M49.7,19.3l1.2,0c0.1,0.2,0.4,1.8,0.8,4.8c0.1,0.6,0.7,4.1,1.6,10.8L53.2,35l-1.3,0c-0.1,0-0.2-1-0.5-2.9
			L49,32c-0.3,1.7-0.4,2.7-0.5,2.9l-1.4,0L47,34.9L49.7,19.3L49.7,19.3z M47.3,35.2L47.3,35.2c0.6,0.8,0.9,1.2,0.9,1.2l0,0.1l0,0
			C48.1,36.5,47.8,36.1,47.3,35.2L47.3,35.2z M47.7,35.2l0.2,0c0,0,0.3,0.4,0.8,1.2l0,0.1l-0.2,0C48.5,36.5,48.2,36.1,47.7,35.2
			L47.7,35.2z M48.2,35.2l0.2,0c0,0,0.3,0.4,0.8,1.2l0,0.1l-0.2,0C49,36.5,48.8,36.1,48.2,35.2L48.2,35.2z M48.8,34.9l0.9,1.4l0,0.1
			c0,0.1,0,0.1-0.1,0.2l-0.9-1.3l0-0.2C48.7,35,48.7,34.9,48.8,34.9z M48.9,34.4c0,0,0.3,0.4,0.9,1.3l0,0.1c0,0.1,0,0.1-0.1,0.1
			c0,0-0.3-0.4-0.9-1.3l0-0.1C48.8,34.4,48.8,34.4,48.9,34.4z M48.9,33.8L48.9,33.8c0.1,0,0.4,0.4,0.9,1.3l0,0.1
			c0,0.1,0,0.1-0.1,0.1L48.9,34C48.9,33.9,48.9,33.8,48.9,33.8z M49.1,33.1l0.9,1.4c0,0.1,0,0.2,0,0.3l-0.1,0c0,0-0.3-0.4-0.9-1.3
			l0-0.2C49,33.1,49.1,33.1,49.1,33.1z M49.1,32.6L49.1,32.6c0.1,0,0.4,0.4,1,1.3l0,0.1c0,0.1,0,0.1-0.1,0.2l-0.9-1.3L49.1,32.6z
			 M49.4,32.3l0.2,0c0,0,0.3,0.4,0.8,1.2l0,0.1l-0.2,0C50.2,33.6,49.9,33.2,49.4,32.3L49.4,32.3z M50.2,24.6L49.4,30l1.7,0
			L50.2,24.6L50.2,24.6z M49.7,29.3c0,0,0.1,0.1,0.3,0.4l0,0.1l-0.2,0c0,0-0.1-0.1-0.2-0.2l0-0.1C49.6,29.3,49.7,29.3,49.7,29.3z
			 M49.9,28.6l0.7,1.1l0,0.1l-0.2,0c0,0-0.2-0.3-0.6-0.9C49.8,28.7,49.8,28.6,49.9,28.6z M49.9,28l0.9,1.3l0,0.3l0,0
			c0,0-0.3-0.4-0.9-1.3l0-0.1C49.9,28,49.9,28,49.9,28z M49.9,32.3l0.2,0c0,0,0.3,0.4,0.8,1.2l0,0.1l-0.2,0
			C50.7,33.6,50.4,33.2,49.9,32.3L49.9,32.3z M49.9,27.4L49.9,27.4c0.5,0.5,0.7,0.9,0.7,1.1l0,0.1l0,0c0,0-0.3-0.3-0.7-1L49.9,27.4z
			 M50.1,26.8L50.1,26.8c0.3,0.3,0.5,0.6,0.5,0.9l0,0c-0.3-0.4-0.5-0.6-0.5-0.7C50.1,26.9,50.1,26.8,50.1,26.8z M50.2,26.2
			L50.2,26.2c0.1,0,0.2,0.2,0.2,0.5l0,0c0,0-0.1-0.1-0.2-0.3L50.2,26.2z M50.4,32.3l0.2,0c0,0,0.3,0.4,0.8,1.2l-0.1,0.1l-0.1,0
			C51.2,33.6,50.9,33.2,50.4,32.3L50.4,32.3z M50.9,32.3l0.2,0c0.1,0.1,0.2,0.3,0.2,0.6l0,0C51.3,32.9,51.1,32.7,50.9,32.3
			L50.9,32.3z M51.2,19.8L51.2,19.8c0.1,0,0.3,0.4,0.8,1.2l0,0.1l0,0C52,21,51.7,20.7,51.2,19.8L51.2,19.8z M51.4,20.6L51.4,20.6
			c0.6,0.7,0.9,1.2,0.9,1.5l0,0C51.6,21.4,51.4,20.9,51.4,20.6z M51.6,21.5c0.5,0.7,0.8,1.2,0.8,1.5l0,0.1l0,0
			C51.8,22.3,51.5,21.8,51.6,21.5L51.6,21.5z M51.6,22.5L51.6,22.5c0.6,0.7,0.9,1.2,0.9,1.5l0,0C51.9,23.3,51.6,22.8,51.6,22.5z
			 M51.8,23.4c0.6,0.7,0.9,1.2,0.9,1.4l0,0.1l0,0C52.1,24.3,51.8,23.8,51.8,23.4L51.8,23.4z M51.9,24.4L51.9,24.4
			c0.6,0.7,0.9,1.2,0.9,1.5l0,0C52.2,25.3,51.9,24.8,51.9,24.4z M52.1,25.4L52.1,25.4c0.1,0,0.3,0.4,0.8,1.2l0,0.3
			C52.4,26.2,52.1,25.7,52.1,25.4z M52.1,35.3L52.1,35.3c0.1,0,0.3,0.4,0.8,1.2l0,0C52.9,36.5,52.6,36.1,52.1,35.3z M52.2,26.4
			L52.2,26.4c0.6,0.7,0.9,1.2,0.9,1.5l-0.1,0C52.5,27.2,52.2,26.7,52.2,26.4z M52.4,27.4L52.4,27.4c0.6,0.7,0.9,1.2,0.9,1.5l0,0
			C52.7,28.2,52.4,27.7,52.4,27.4z M52.5,35.3l0.1,0c0,0,0.3,0.4,0.8,1.2l0,0.1l-0.2,0C53.2,36.6,53,36.2,52.5,35.3L52.5,35.3z
			 M52.5,28.3c0.6,0.7,0.9,1.2,0.9,1.4l0,0.1l0,0c-0.5-0.7-0.8-1.1-0.8-1.4L52.5,28.3z M52.7,29.3L52.7,29.3
			c0.6,0.7,0.9,1.2,0.9,1.5l0,0C53,30.1,52.7,29.6,52.7,29.3z M52.8,30.3L52.8,30.3c0.6,0.7,0.9,1.2,0.9,1.5l0,0
			C53.1,31.1,52.8,30.6,52.8,30.3z M53,35.3l0.2,0c0,0,0.3,0.4,0.8,1.2l0,0.1l-0.2,0C53.8,36.6,53.5,36.2,53,35.3L53,35.3z M53,31.3
			c0.6,0.7,0.9,1.2,0.8,1.5l0,0c-0.5-0.7-0.8-1.1-0.8-1.4L53,31.3z M53.1,32.2L53.1,32.2c0.6,0.7,0.9,1.2,0.9,1.5l0,0
			C53.4,33.1,53.1,32.6,53.1,32.2z M53.3,33.3L53.3,33.3c0.6,0.7,0.9,1.1,0.9,1.3l0,0.1C53.6,34,53.3,33.6,53.3,33.3z M53.4,34.2
			L53.4,34.2c0.6,0.7,0.9,1.2,0.9,1.5l0,0C53.7,35,53.4,34.5,53.4,34.2z M53.6,35.2L53.6,35.2c0.6,0.7,0.9,1.1,0.9,1.4l-0.1,0.1
			c0,0-0.3-0.4-0.9-1.2l0-0.1C53.5,35.3,53.6,35.2,53.6,35.2z"/>
		<path class="st3" d="M55.5,21.3l1.3,0c0.1,0,0.4,1.1,0.8,3.3c0,0.1,0.3,1.2,0.9,3.4l0,0c1.1-4.5,1.7-6.7,1.7-6.7l1.3,0
			c0,0,0.1,0.1,0.1,0.1l-0.1,13.7c0,0.1,0,0.1-0.1,0.1l-1.1,0c-0.1,0-0.1,0-0.1-0.1l0.1-8.8l0,0c-1.1,4.5-1.7,6.8-1.9,7.1l0,0
			l-1.7-7.2l0,0l-0.1,8.8c0,0.1,0,0.1-0.1,0.1l-1.1,0c0,0-0.1,0-0.1-0.1l0.1-13.7C55.4,21.3,55.4,21.3,55.5,21.3z M55.6,35.4
			L55.6,35.4c0.1,0,0.3,0.4,0.8,1.1l0,0.1l0,0C56.3,36.6,56,36.2,55.6,35.4L55.6,35.4z M55.9,35.4l0.1,0c0,0,0.3,0.4,0.8,1.1l0,0.1
			l-0.1,0C56.6,36.6,56.4,36.2,55.9,35.4L55.9,35.4z M56.4,35.4L56.4,35.4c0.2,0,0.5,0.4,1,1.1l-0.1,0.1l-0.1,0
			C57.1,36.6,56.8,36.2,56.4,35.4L56.4,35.4z M56.9,31.8l0.7,1.1l0,0.3l0,0C57,32.5,56.8,32.1,56.9,31.8L56.9,31.8z M56.8,35.2
			L56.8,35.2c0.1,0,0.3,0.4,0.8,1.1l0,0.3l0,0c0,0-0.3-0.4-0.7-1.1L56.8,35.2z M56.8,34.6L56.8,34.6c0.1,0,0.3,0.4,0.8,1.1l0,0.2
			l0,0c0,0-0.3-0.4-0.7-1.1L56.8,34.6z M56.8,33.8L56.8,33.8c0.1,0,0.3,0.4,0.8,1.1l0,0.3l0,0c0,0-0.3-0.4-0.7-1.1L56.8,33.8z
			 M56.8,33.2L56.8,33.2c0.1,0,0.3,0.4,0.8,1.1l0,0.3l0,0c0,0-0.3-0.4-0.7-1.1L56.8,33.2z M56.8,32.6L56.8,32.6
			c0.1,0,0.3,0.4,0.8,1.1l0,0.2l0,0c0,0-0.3-0.4-0.7-1.1L56.8,32.6z M56.8,31.2L56.8,31.2c0.1,0,0.3,0.4,0.8,1.1l0,0.2
			c0,0.1,0,0.1-0.1,0.1l-0.7-1.1L56.8,31.2z M56.8,30.6L56.8,30.6c0.1,0,0.3,0.4,0.8,1.1l0,0.2l0,0c0,0-0.3-0.4-0.7-1.1L56.8,30.6z
			 M56.8,29.9L56.8,29.9c0.1,0,0.3,0.4,0.8,1.1l0,0.3l0,0c0,0-0.3-0.4-0.7-1.1L56.8,29.9z M56.8,29.2L56.8,29.2
			c0.4,0.5,0.6,0.9,0.6,1.1l0,0c0,0-0.2-0.3-0.6-0.9L56.8,29.2z M56.8,28.6L56.8,28.6c0.3,0.2,0.4,0.5,0.4,0.8c0,0-0.2-0.2-0.4-0.5
			L56.8,28.6z M56.8,27.9c0.1,0,0.1,0.2,0.1,0.4c0,0-0.1-0.1-0.1-0.2L56.8,27.9z M57.3,22.5c0.5,0.6,0.7,1,0.7,1.4
			C57.6,23.3,57.3,22.8,57.3,22.5z M57.6,23.5c0.5,0.6,0.7,1,0.7,1.3l0,0.1C57.8,24.3,57.6,23.8,57.6,23.5z M57.9,24.6
			c0.5,0.6,0.7,1,0.7,1.3l0,0C58.1,25.3,57.9,24.9,57.9,24.6z M58.1,25.6L58.1,25.6c0.1,0,0.3,0.3,0.6,0.9l0,0.1
			c0,0.1,0,0.1-0.1,0.2C58.2,26.2,58.1,25.8,58.1,25.6z M58.3,26.6L58.3,26.6c0.1,0,0.1,0.2,0.3,0.3l0,0.1c0,0,0,0.1-0.1,0.2
			C58.4,26.9,58.3,26.8,58.3,26.6z M58.7,33.3c0,0,0.3,0.4,0.8,1.2l0,0.1c0,0.1,0,0.1-0.1,0.1l-0.8-1.2l0-0.1
			C58.7,33.3,58.7,33.3,58.7,33.3z M58.9,32.7l0.8,1.2l0,0.1c0,0,0,0.1-0.1,0.2L58.8,33C58.8,32.8,58.9,32.7,58.9,32.7z M58.9,32.3
			L58.9,32.3c0.1,0,0.4,0.4,0.9,1.2l0,0.1c0,0.1,0,0.1-0.1,0.1c0,0-0.3-0.4-0.8-1.1L58.9,32.3z M59.1,31.8L59.1,31.8
			c0.1,0,0.4,0.4,0.9,1.1l0,0.2l-0.1,0c0,0-0.3-0.4-0.8-1.1L59.1,31.8z M59.3,31.3l0.8,1.2c0,0.1-0.1,0.2-0.1,0.2l-0.8-1.2l0-0.1
			C59.2,31.4,59.2,31.3,59.3,31.3z M59.4,30.8l0.7,1.1l0,0.3l0,0c0,0-0.3-0.4-0.8-1.1l0-0.1C59.3,30.9,59.3,30.9,59.4,30.8z
			 M59.5,30.3l0.6,0.9l0,0.2l0,0c0,0-0.2-0.3-0.6-0.9l0-0.1C59.5,30.3,59.5,30.3,59.5,30.3z M59.6,29.8c0,0,0.2,0.2,0.5,0.7l0,0.3
			l0,0c0,0-0.2-0.3-0.5-0.8l0-0.1C59.6,29.9,59.6,29.8,59.6,29.8z M59.7,29.3L59.7,29.3c0.1,0,0.2,0.2,0.4,0.5l0,0.2l0,0
			c0,0-0.2-0.2-0.4-0.6C59.7,29.4,59.7,29.4,59.7,29.3z M59.9,28.8l0.2,0.4l0,0.2l0,0c0,0-0.1-0.1-0.3-0.4
			C59.8,28.9,59.9,28.8,59.9,28.8z M59.9,28.4L59.9,28.4c0.1,0,0.1,0.1,0.2,0.2l0,0.3l0,0c0,0-0.1-0.1-0.1-0.2L59.9,28.4z
			 M60.1,27.9L60.1,27.9l0.1,0.2l-0.1,0L60.1,27.9z M60.6,35.5l0.1,0l0.8,1.1l-0.1,0.1l-0.1,0C61.3,36.7,61,36.3,60.6,35.5
			L60.6,35.5z M61.1,35.5l0.1,0c0,0,0.3,0.4,0.8,1.1l-0.1,0.1l-0.1,0C61.8,36.7,61.5,36.3,61.1,35.5L61.1,35.5z M61.5,35.5l0.1,0
			c0,0,0.3,0.4,0.8,1.1l0,0.1l-0.2,0C62.3,36.7,62,36.3,61.5,35.5L61.5,35.5z M61.8,34.9c0.5,0.8,0.7,1.2,0.7,1.2l0,0.2l0,0
			c0,0-0.3-0.4-0.8-1.2l0-0.2C61.7,35,61.8,34.9,61.8,34.9z M61.8,34.3l0.7,1.1l0,0.2c0,0.1,0,0.1-0.1,0.1c-0.5-0.7-0.7-1.2-0.7-1.2
			l0-0.1C61.7,34.3,61.8,34.3,61.8,34.3z M61.7,33.6L61.7,33.6c0.1,0,0.3,0.4,0.8,1.1l0,0.2l0,0c0,0-0.3-0.4-0.8-1.1L61.7,33.6z
			 M61.8,32.9l0.7,1.1l0,0.2c0,0.1,0,0.1-0.1,0.1l-0.7-1.2l0-0.2C61.7,33,61.8,32.9,61.8,32.9z M61.8,32.3l0.7,1.2l0,0.2l0,0
			c0,0-0.3-0.4-0.8-1.1l0-0.1C61.7,32.3,61.8,32.3,61.8,32.3z M61.8,31.6l0.7,1.2l0,0.2l0,0c0,0-0.3-0.4-0.8-1.1l0-0.2
			C61.8,31.6,61.8,31.6,61.8,31.6z M61.8,30.9l0.7,1.1l0,0.3l0,0c0,0-0.3-0.4-0.8-1.1l0-0.2C61.8,31,61.8,30.9,61.8,30.9z
			 M61.8,30.3L61.8,30.3c0.1,0,0.3,0.4,0.8,1.2l0,0.2l0,0c0,0-0.3-0.4-0.8-1.1L61.8,30.3z M61.8,29.6L61.8,29.6
			c0.1,0,0.3,0.4,0.8,1.1l0,0.2l0,0c0,0-0.3-0.4-0.8-1.1L61.8,29.6z M61.8,28.9l0.7,1.1l0,0.3l0,0c0,0-0.3-0.4-0.8-1.1l0-0.2
			C61.8,29,61.8,28.9,61.8,28.9z M61.8,28.3L61.8,28.3c0.1,0,0.3,0.4,0.8,1.1l0,0.2l0,0c0,0-0.3-0.4-0.8-1.2L61.8,28.3z M61.8,27.6
			l0.7,1.1l0,0.3l0,0c0,0-0.3-0.4-0.8-1.1l0-0.2C61.8,27.6,61.8,27.6,61.8,27.6z M61.9,26.9l0.7,1.1l0,0.3l0,0c0,0-0.3-0.4-0.8-1.1
			l0-0.2C61.8,27,61.8,26.9,61.9,26.9z M61.8,26.3L61.8,26.3c0.1,0,0.3,0.4,0.8,1.1l0,0.2l0,0c0,0-0.3-0.4-0.8-1.2L61.8,26.3z
			 M61.9,25.6l0.7,1.2l0,0.3l0,0c0,0-0.3-0.4-0.8-1.1l0-0.2C61.8,25.6,61.8,25.6,61.9,25.6z M61.9,24.9l0.7,1.1l0,0.2
			c0,0.1,0,0.1-0.1,0.1c-0.5-0.7-0.7-1.1-0.7-1.3C61.8,25,61.8,24.9,61.9,24.9z M61.8,24.3L61.8,24.3c0.1,0,0.3,0.4,0.8,1.1l0,0.2
			l0,0c0,0-0.3-0.4-0.8-1.1L61.8,24.3z M61.9,23.6l0.7,1.2l0,0.3l0,0c0,0-0.3-0.4-0.8-1.1l0-0.2C61.8,23.6,61.8,23.6,61.9,23.6z
			 M61.9,22.9l0.7,1.1l0,0.2c0,0.1,0,0.1-0.1,0.1c-0.5-0.7-0.7-1.1-0.7-1.3C61.8,23,61.8,22.9,61.9,22.9z M61.8,22.3L61.8,22.3
			c0.1,0,0.3,0.4,0.8,1.1l0,0.2l0,0c0,0-0.3-0.4-0.8-1.1L61.8,22.3z M61.9,21.7l0.7,1.2l0,0.2l0,0c0,0-0.3-0.4-0.8-1.1l0-0.1
			C61.8,21.7,61.8,21.7,61.9,21.7z"/>
	</g>
</g>
</svg>
