<svg width="24" height="24" viewBox="0 0 24 24" fill="none" xmlns="http://www.w3.org/2000/svg">
<g clip-path="url(#clip0)">
<path d="M22.25 0H1.75C0.785 0 0 0.785 0 1.75V4.25C0 5.215 0.785 6 1.75 6H22.25C23.215 6 24 5.215 24 4.25V1.75C24 0.785 23.215 0 22.25 0Z" fill="#23B8BF"/>
<path d="M0.75 11.5H15.25C15.664 11.5 16 11.164 16 10.75C16 10.336 15.664 10 15.25 10H0.75C0.336 10 0 10.336 0 10.75C0 11.164 0.336 11.5 0.75 11.5Z" fill="#23B8BF"/>
<path d="M0.75 14.5H15.25C15.664 14.5 16 14.164 16 13.75C16 13.336 15.664 13 15.25 13H0.75C0.336 13 0 13.336 0 13.75C0 14.164 0.336 14.5 0.75 14.5Z" fill="#23B8BF"/>
<path d="M0.75 20.5H15.25C15.664 20.5 16 20.164 16 19.75C16 19.336 15.664 19 15.25 19H0.75C0.336 19 0 19.336 0 19.75C0 20.164 0.336 20.5 0.75 20.5Z" fill="#23B8BF"/>
<path d="M0.75 23.5H15.25C15.664 23.5 16 23.164 16 22.75C16 22.336 15.664 22 15.25 22H0.75C0.336 22 0 22.336 0 22.75C0 23.164 0.336 23.5 0.75 23.5Z" fill="#23B8BF"/>
<path d="M21 15C22.6569 15 24 13.6569 24 12C24 10.3431 22.6569 9 21 9C19.3431 9 18 10.3431 18 12C18 13.6569 19.3431 15 21 15Z" fill="#23B8BF"/>
<path d="M21 24C22.6569 24 24 22.6569 24 21C24 19.3431 22.6569 18 21 18C19.3431 18 18 19.3431 18 21C18 22.6569 19.3431 24 21 24Z" fill="#23B8BF"/>
</g>
<defs>
<clipPath id="clip0">
<rect width="24" height="24" fill="white"/>
</clipPath>
</defs>
</svg>
